<?xml version="1.0" standalone="no"?>
<!DOCTYPE svg PUBLIC "-//W3C//DTD SVG 20010904//EN"
 "http://www.w3.org/TR/2001/REC-SVG-20010904/DTD/svg10.dtd">
<svg version="1.0" xmlns="http://www.w3.org/2000/svg"
 width="499.000000pt" height="500.000000pt" viewBox="0 0 499.000000 500.000000"
 preserveAspectRatio="xMidYMid meet">

<g transform="translate(0.000000,500.000000) scale(0.100000,-0.100000)"
fill="#000000" stroke="none">
<path d="M3203 4728 c-5 -7 -25 -40 -43 -72 -19 -33 -68 -114 -111 -180 -43
-67 -105 -164 -137 -216 -97 -155 -251 -400 -298 -472 -24 -37 -44 -72 -44
-78 0 -6 16 -42 35 -81 20 -38 33 -74 31 -78 -3 -5 -339 -9 -747 -10 -711 -2
-743 -3 -791 -22 -112 -44 -186 -119 -213 -213 -16 -61 -18 -219 -13 -1416 3
-854 3 -855 25 -895 25 -47 75 -96 120 -119 29 -14 156 -16 1325 -16 1069 0
1302 3 1345 14 119 32 240 132 296 245 l32 65 3 241 c2 132 7 244 11 248 4 4
37 10 72 13 55 4 68 9 92 34 l27 30 0 341 c0 283 -3 345 -15 369 -16 31 -36
37 -125 42 l-44 3 -12 75 c-7 41 -13 134 -13 205 -2 329 -57 473 -235 611
l-39 31 38 69 c89 159 105 190 105 206 0 10 -22 52 -48 95 -55 87 -366 591
-447 723 -29 47 -69 115 -90 153 -29 52 -42 67 -60 67 -12 0 -27 -6 -32 -12z
m27 -503 l-5 -360 -90 -2 c-49 -1 -152 -7 -228 -13 -77 -6 -141 -9 -144 -7 -2
3 33 65 78 138 45 74 118 193 162 264 175 285 220 356 226 348 3 -4 4 -170 1
-368z m2 -495 c-2 -41 -4 -76 -6 -77 -3 -4 -188 72 -244 101 -30 15 -52 30
-49 32 7 7 193 22 252 20 l50 -1 -3 -75z m-388 -4 c55 -24 163 -74 240 -110
76 -36 146 -66 156 -66 10 0 77 29 149 65 224 111 351 164 351 147 0 -11 -123
-80 -350 -196 l-156 -80 -239 123 c-132 67 -251 131 -265 141 -44 34 3 24 114
-24z m-31 -170 c114 -95 390 -266 432 -266 15 0 44 10 64 22 85 52 270 175
323 215 31 24 60 43 63 43 4 0 -3 -17 -16 -37 -12 -21 -64 -110 -116 -198 -52
-87 -98 -162 -102 -165 -5 -3 -108 -4 -230 -2 l-221 3 -87 147 c-47 81 -103
172 -123 202 -65 98 -64 102 13 36z m-89 -171 c40 -83 85 -199 80 -207 -3 -4
-353 -8 -777 -8 -755 0 -773 0 -826 21 -30 11 -67 27 -82 35 -31 16 -59 61
-59 95 0 28 57 82 101 96 23 8 272 11 789 10 l755 -2 19 -40z m1026 -133 c31
-31 68 -82 83 -112 24 -51 59 -187 51 -201 -2 -4 -32 21 -67 55 -42 42 -92 77
-149 106 l-86 44 20 41 c40 78 70 125 81 125 6 0 36 -26 67 -58z m-2653 -175
c41 -13 201 -16 1183 -20 1105 -5 1137 -6 1213 -26 144 -38 253 -112 326 -222
46 -69 91 -199 91 -264 l0 -44 -347 -3 -348 -3 -56 -28 c-73 -35 -152 -119
-192 -204 -30 -64 -32 -75 -32 -178 0 -98 3 -116 27 -167 30 -64 95 -139 150
-174 20 -13 64 -32 97 -44 56 -18 85 -20 391 -20 l331 0 -3 -217 c-3 -211 -4
-220 -29 -274 -32 -68 -88 -131 -143 -164 -95 -56 -66 -55 -1396 -55 -1383 0
-1297 -5 -1349 74 l-26 40 -3 1034 -2 1034 34 -30 c19 -16 56 -37 83 -45z
m3021 -989 l-3 -283 -425 0 c-412 0 -426 1 -470 21 -105 50 -170 151 -170 269
0 117 58 208 160 254 43 20 64 21 478 21 l432 0 -2 -282z"/>
<path d="M1112 3008 c-24 -24 -7 -118 22 -118 19 0 36 31 36 65 0 53 -30 81
-58 53z"/>
<path d="M1722 3012 c-44 -3 -53 -6 -50 -20 3 -14 16 -17 78 -17 58 0 75 3 75
14 0 19 -37 27 -103 23z"/>
<path d="M2023 3010 c-15 -6 -21 -15 -17 -25 5 -12 23 -15 79 -15 78 0 102 13
70 37 -21 15 -98 17 -132 3z"/>
<path d="M1335 3000 c-13 -22 9 -30 81 -30 67 0 74 2 74 20 0 18 -7 20 -74 20
-41 0 -78 -4 -81 -10z"/>
<path d="M1122 2708 c-18 -18 -16 -137 3 -144 39 -15 60 65 35 130 -11 29 -20
32 -38 14z"/>
<path d="M1120 2375 c-6 -8 -10 -40 -8 -77 2 -52 6 -63 22 -66 25 -5 36 14 36
63 0 74 -23 112 -50 80z"/>
<path d="M1117 2043 c-4 -3 -7 -39 -7 -80 0 -70 1 -73 24 -73 13 0 27 7 30 16
11 28 6 120 -6 132 -13 13 -31 16 -41 5z"/>
<path d="M1117 1699 c-8 -11 -14 -28 -12 -37 2 -9 4 -34 4 -55 1 -44 26 -61
47 -32 19 26 18 110 -2 129 -20 20 -20 20 -37 -5z"/>
<path d="M1122 1368 c-17 -17 -16 -133 2 -147 36 -30 65 85 36 140 -12 22 -21
24 -38 7z"/>
<path d="M3320 2218 c-76 -39 -112 -137 -76 -206 29 -55 103 -102 163 -102 42
0 106 36 132 75 54 80 31 181 -52 230 -55 31 -108 32 -167 3z m108 -120 c28
-28 7 -78 -33 -78 -27 0 -45 18 -45 45 0 27 18 45 45 45 12 0 26 -5 33 -12z"/>
<path d="M910 3979 c-20 -11 -46 -36 -59 -55 -20 -29 -23 -43 -19 -95 4 -57 8
-65 45 -100 72 -67 164 -62 234 11 39 41 52 91 37 146 -8 32 -52 80 -90 100
-39 20 -107 17 -148 -7z m136 -82 c80 -69 -27 -181 -110 -116 -19 15 -26 29
-26 57 0 74 78 108 136 59z"/>
<path d="M1217 3853 c-4 -3 -7 -21 -7 -39 0 -27 5 -35 23 -39 12 -3 292 -4
622 -3 l600 3 0 40 0 40 -616 3 c-338 1 -619 -1 -622 -5z"/>
<path d="M411 3763 c-101 -52 -146 -142 -123 -249 48 -231 382 -244 448 -17
20 70 12 126 -26 186 -43 68 -95 99 -178 104 -59 4 -73 1 -121 -24z m183 -132
c41 -41 44 -106 7 -145 -74 -79 -201 -38 -201 66 0 50 13 74 53 99 45 28 101
20 141 -20z"/>
<path d="M4212 3780 c-52 -12 -109 -56 -138 -106 -36 -61 -38 -148 -6 -210 42
-83 142 -141 225 -132 142 16 237 143 207 276 -10 45 -22 65 -64 107 -67 67
-134 87 -224 65z m145 -155 c33 -33 35 -39 30 -82 -4 -37 -12 -54 -36 -75 -84
-75 -224 7 -192 113 16 54 52 79 113 79 44 0 54 -4 85 -35z"/>
<path d="M4213 3283 c-3 -7 -3 -82 1 -166 3 -83 6 -245 6 -359 l0 -208 35 0
35 0 0 369 0 369 -36 4 c-24 3 -38 0 -41 -9z"/>
<path d="M549 3033 c-1 -549 -1 -660 0 -691 1 -31 3 -33 34 -30 l32 3 3 478 2
477 -35 0 -35 0 -1 -237z"/>
<path d="M530 2281 c-111 -23 -189 -123 -177 -227 7 -63 38 -115 89 -150 194
-132 415 89 289 288 -42 66 -128 104 -201 89z m70 -126 c57 -30 75 -86 46
-144 -17 -32 -54 -51 -100 -51 -26 0 -41 8 -65 35 -17 20 -31 45 -31 56 0 41
29 89 62 104 42 18 53 18 88 0z"/>
<path d="M572 1823 l-22 -4 2 -432 3 -432 33 -3 32 -3 0 440 c0 347 -3 441
-12 440 -7 -1 -23 -4 -36 -6z"/>
<path d="M4216 1653 c-7 -7 -6 -520 2 -645 l4 -68 34 0 34 0 0 360 0 360 -33
0 c-19 0 -37 -3 -41 -7z"/>
<path d="M399 892 c-73 -38 -112 -100 -117 -188 -8 -115 46 -199 152 -239 122
-47 268 34 302 166 51 198 -154 357 -337 261z m156 -106 c84 -35 93 -153 15
-199 -79 -47 -180 10 -180 102 0 36 49 98 83 104 40 8 47 7 82 -7z"/>
<path d="M4205 889 c-38 -11 -111 -72 -130 -109 -8 -15 -19 -49 -25 -75 -32
-144 106 -292 255 -272 190 26 280 244 159 386 -61 70 -164 98 -259 70z m134
-123 c65 -34 78 -127 25 -180 -72 -71 -200 -19 -196 80 2 46 17 71 55 94 38
24 78 25 116 6z"/>
<path d="M2895 692 c-77 -13 -109 -51 -109 -129 0 -46 4 -57 34 -88 59 -61
141 -56 200 11 76 87 -9 227 -125 206z m65 -82 c58 -58 -20 -142 -88 -94 -27
18 -30 69 -5 96 21 24 68 23 93 -2z"/>
<path d="M1009 651 c-33 -33 -39 -45 -39 -81 0 -78 55 -133 133 -132 75 1 133
71 122 147 -10 65 -61 105 -136 105 -35 0 -48 -6 -80 -39z m134 -53 c18 -24
18 -30 7 -57 -25 -61 -112 -48 -118 16 -7 68 70 96 111 41z"/>
<path d="M774 606 c-3 -8 -4 -25 -2 -38 3 -21 8 -23 74 -26 l71 -3 7 32 c3 17
3 35 0 40 -3 5 -37 9 -75 9 -51 0 -71 -4 -75 -14z"/>
<path d="M1270 580 l0 -40 734 0 c802 0 746 -4 746 56 l0 24 -740 0 -740 0 0
-40z"/>
<path d="M3090 603 c0 -10 3 -28 6 -41 l6 -22 452 2 451 3 0 35 0 35 -457 3
c-432 2 -458 1 -458 -15z"/>
</g>
</svg>
